<?xml version="1.0" standalone="no"?><!DOCTYPE svg PUBLIC "-//W3C//DTD SVG 1.1//EN" "http://www.w3.org/Graphics/SVG/1.1/DTD/svg11.dtd"><svg t="1598859671240" class="icon" viewBox="0 0 1024 1024" version="1.1" xmlns="http://www.w3.org/2000/svg" p-id="2399" xmlns:xlink="http://www.w3.org/1999/xlink" width="128" height="128"><defs><style type="text/css"></style></defs><path d="M790.24 103.36H233.76a131.68 131.68 0 0 0-131.2 131.2v554.88a131.68 131.68 0 0 0 131.2 131.2h556.48a131.68 131.68 0 0 0 131.2-131.2v-4.48s-213.12-88.64-320-140.96C528 732.64 435.36 786.56 339.2 786.56c-163.04 0-218.4-144-141.76-236.64A170.4 170.4 0 0 1 288 499.04c70.56-18.24 181.92 9.92 285.12 44a558.24 558.24 0 0 0 45.44-112.96h-320v-32h164.16v-56H263.36v-32h199.36v-84a14.08 14.08 0 0 1 14.4-14.4h80v96h198.24v32H557.44v57.6H720a710.4 710.4 0 0 1-69.28 172.32c49.28 18.24 93.28 34.08 125.92 45.44 117.6 39.36 144 42.4 144 42.4V233.76a129.92 129.92 0 0 0-130.4-130.4z m0 0" fill="#1296DB" p-id="2400"></path><path d="M301.92 546.88a158.72 158.72 0 0 0-80 29.6c-64 55.36-25.76 155.52 102.4 155.52 73.6 0 147.04-48 208-122.88-83.36-40.96-153.92-70.56-229.76-62.24z m0 0" fill="#1296DB" p-id="2401"></path></svg>