<?xml version="1.0" standalone="no"?><!DOCTYPE svg PUBLIC "-//W3C//DTD SVG 1.1//EN" "http://www.w3.org/Graphics/SVG/1.1/DTD/svg11.dtd"><svg t="1598859647534" class="icon" viewBox="0 0 1024 1024" version="1.1" xmlns="http://www.w3.org/2000/svg" p-id="1534" xmlns:xlink="http://www.w3.org/1999/xlink" width="128" height="128"><defs><style type="text/css"></style></defs><path d="M387.52 619.68a26.24 26.24 0 0 1-14.4 4 29.6 29.6 0 0 1-26.08-16l-2.56-4-83.36-184a11.84 11.84 0 0 1-1.28-6.56 16 16 0 0 1 16-16 19.04 19.04 0 0 1 9.12 2.56l97.76 71.04a39.84 39.84 0 0 0 24.8 7.84 64.96 64.96 0 0 0 16-2.72l461.28-208C800 170.4 665.12 105.92 512 105.92c-251.52 0-456.16 172.16-456.16 384 0 115.68 61.28 219.36 157.76 289.12a30.08 30.08 0 0 1 13.12 24.96c0 4-1.28 6.56-1.28 9.28-7.84 28.96-19.52 74.88-20.8 77.6a38.4 38.4 0 0 0-2.56 11.84 16 16 0 0 0 16 16 18.72 18.72 0 0 0 9.12-2.72l100.32-57.76a53.6 53.6 0 0 1 24.8-6.56 38.88 38.88 0 0 1 12.96 2.72A548.96 548.96 0 0 0 512 874.72c251.52 0 456.16-172.16 456.16-384a324.96 324.96 0 0 0-51.52-177.12l-526.56 304z m0 0" fill="#66B645" p-id="1535"></path></svg>